<?xml version="1.0" encoding="utf-8"?>
<!-- Generator: Adobe Illustrator 22.0.2, SVG Export Plug-In . SVG Version: 6.00 Build 0)  -->
<svg version="1.1" id="图层_1" xmlns="http://www.w3.org/2000/svg" xmlns:xlink="http://www.w3.org/1999/xlink" x="0px" y="0px"
	 viewBox="0 0 48 48" style="enable-background:new 0 0 48 48;" xml:space="preserve">
<style type="text/css">
	.st0{fill:#fff;}
	.st1{opacity:0.5;fill:#fff;}
</style>
<path class="st0" d="M39.7,34.5c-1.1,1-2.6,1.5-4.6,1.5c-1.7,0-3-0.4-3.9-1.2c-0.9-0.8-1.4-2-1.4-3.6c0-0.6,0.1-1.2,0.2-2l1.8-8.6
	h1.8L32,29c-0.1,0.7-0.2,1.3-0.2,1.9c0,1.2,0.3,2.1,0.9,2.7c0.6,0.6,1.4,0.9,2.6,0.9c1.4,0,2.5-0.4,3.3-1.2c0.8-0.8,1.4-2.1,1.8-4
	l1.8-8.7H44l-1.9,8.9C41.7,31.8,40.9,33.5,39.7,34.5z M13.6,26.7L4,36v-8.5l5.2-5L4,17.6V12h2.9l22,24h-5.4L13.6,26.7z"/>
<path class="st1" d="M15.7,16.2l4.4-4.2h8.9l-9.3,9L15.7,16.2z"/>
</svg>
